{
	"patcher" : 	{
		"fileversion" : 1,
		"appversion" : 		{
			"major" : 8,
			"minor" : 0,
			"revision" : 3,
			"architecture" : "x64",
			"modernui" : 1
		}
,
		"classnamespace" : "box",
		"rect" : [ 207.0, 132.0, 818.0, 661.0 ],
		"bglocked" : 0,
		"openinpresentation" : 0,
		"default_fontsize" : 12.0,
		"default_fontface" : 0,
		"default_fontname" : "Arial",
		"gridonopen" : 1,
		"gridsize" : [ 15.0, 15.0 ],
		"gridsnaponopen" : 1,
		"objectsnaponopen" : 1,
		"statusbarvisible" : 2,
		"toolbarvisible" : 1,
		"lefttoolbarpinned" : 0,
		"toptoolbarpinned" : 0,
		"righttoolbarpinned" : 0,
		"bottomtoolbarpinned" : 0,
		"toolbars_unpinned_last_save" : 0,
		"tallnewobj" : 0,
		"boxanimatetime" : 200,
		"enablehscroll" : 1,
		"enablevscroll" : 1,
		"devicewidth" : 0.0,
		"description" : "",
		"digest" : "",
		"tags" : "",
		"style" : "",
		"subpatcher_template" : "",
		"boxes" : [ 			{
				"box" : 				{
					"id" : "obj-45",
					"maxclass" : "ezdac~",
					"numinlets" : 2,
					"numoutlets" : 0,
					"patching_rect" : [ 378.0, 158.5, 45.0, 45.0 ]
				}

			}
, 			{
				"box" : 				{
					"id" : "obj-44",
					"maxclass" : "meter~",
					"numinlets" : 1,
					"numoutlets" : 1,
					"outlettype" : [ "float" ],
					"patching_rect" : [ 382.0, 55.0, 138.0, 24.0 ]
				}

			}
, 			{
				"box" : 				{
					"id" : "obj-43",
					"maxclass" : "meter~",
					"numinlets" : 1,
					"numoutlets" : 1,
					"outlettype" : [ "float" ],
					"patching_rect" : [ 178.5, 45.0, 133.0, 25.0 ]
				}

			}
, 			{
				"box" : 				{
					"id" : "obj-42",
					"maxclass" : "gain~",
					"multichannelvariant" : 0,
					"numinlets" : 1,
					"numoutlets" : 2,
					"outlettype" : [ "signal", "" ],
					"parameter_enable" : 0,
					"patching_rect" : [ 330.0, 17.0, 22.0, 140.0 ]
				}

			}
, 			{
				"box" : 				{
					"id" : "obj-41",
					"maxclass" : "message",
					"numinlets" : 2,
					"numoutlets" : 1,
					"outlettype" : [ "" ],
					"patching_rect" : [ 445.5, -97.0, 51.0, 22.0 ],
					"text" : "speed 2"
				}

			}
, 			{
				"box" : 				{
					"id" : "obj-38",
					"maxclass" : "message",
					"numinlets" : 2,
					"numoutlets" : 1,
					"outlettype" : [ "" ],
					"patching_rect" : [ 382.0, -92.0, 51.0, 22.0 ],
					"text" : "speed 1"
				}

			}
, 			{
				"box" : 				{
					"id" : "obj-36",
					"maxclass" : "message",
					"numinlets" : 2,
					"numoutlets" : 1,
					"outlettype" : [ "" ],
					"patching_rect" : [ 498.5, -69.0, 106.0, 22.0 ],
					"text" : "selection 1 0.4 0.6"
				}

			}
, 			{
				"box" : 				{
					"id" : "obj-34",
					"maxclass" : "message",
					"numinlets" : 2,
					"numoutlets" : 1,
					"outlettype" : [ "" ],
					"patching_rect" : [ 302.0, -87.0, 61.0, 22.0 ],
					"text" : "speed 0.5"
				}

			}
, 			{
				"box" : 				{
					"clipheight" : 20.0,
					"data" : 					{
						"clips" : [ 							{
								"absolutepath" : "cello-f2.aif",
								"filename" : "cello-f2.aif",
								"filekind" : "audiofile",
								"loop" : 0,
								"content_state" : 								{
									"quality" : [ "basic" ],
									"timestretch" : [ 0 ],
									"formantcorrection" : [ 0 ],
									"formant" : [ 1.0 ],
									"speed" : [ 0.5 ],
									"mode" : [ "basic" ],
									"originallength" : [ 0.0, "ticks" ],
									"play" : [ 0 ],
									"originaltempo" : [ 120.0 ],
									"originallengthms" : [ 0.0 ],
									"basictuning" : [ 440 ],
									"pitchshift" : [ 1.0 ],
									"pitchcorrection" : [ 0 ],
									"slurtime" : [ 0.0 ],
									"followglobaltempo" : [ 0 ]
								}

							}
 ]
					}
,
					"id" : "obj-31",
					"maxclass" : "playlist~",
					"numinlets" : 1,
					"numoutlets" : 5,
					"outlettype" : [ "signal", "signal", "signal", "", "dictionary" ],
					"patching_rect" : [ 316.0, -31.0, 153.0, 20.0 ]
				}

			}
, 			{
				"box" : 				{
					"id" : "obj-30",
					"maxclass" : "spectroscope~",
					"numinlets" : 2,
					"numoutlets" : 1,
					"outlettype" : [ "" ],
					"patching_rect" : [ 489.0, 291.0, 300.0, 100.0 ]
				}

			}
, 			{
				"box" : 				{
					"id" : "obj-26",
					"maxclass" : "scope~",
					"numinlets" : 2,
					"numoutlets" : 0,
					"patching_rect" : [ 501.5, 409.0, 130.0, 130.0 ]
				}

			}
, 			{
				"box" : 				{
					"id" : "obj-25",
					"maxclass" : "meter~",
					"numinlets" : 1,
					"numoutlets" : 1,
					"outlettype" : [ "float" ],
					"patching_rect" : [ 489.0, 550.0, 251.0, 99.0 ]
				}

			}
, 			{
				"box" : 				{
					"id" : "obj-24",
					"maxclass" : "gain~",
					"multichannelvariant" : 0,
					"numinlets" : 1,
					"numoutlets" : 2,
					"outlettype" : [ "signal", "" ],
					"parameter_enable" : 0,
					"patching_rect" : [ 149.0, 450.0, 22.0, 130.0 ]
				}

			}
, 			{
				"box" : 				{
					"id" : "obj-22",
					"maxclass" : "number",
					"numinlets" : 1,
					"numoutlets" : 2,
					"outlettype" : [ "", "bang" ],
					"parameter_enable" : 0,
					"patching_rect" : [ 220.0, 566.0, 50.0, 22.0 ]
				}

			}
, 			{
				"box" : 				{
					"id" : "obj-20",
					"maxclass" : "ezdac~",
					"numinlets" : 2,
					"numoutlets" : 0,
					"patching_rect" : [ 110.5, 604.0, 45.0, 45.0 ]
				}

			}
, 			{
				"box" : 				{
					"id" : "obj-19",
					"maxclass" : "newobj",
					"numinlets" : 2,
					"numoutlets" : 1,
					"outlettype" : [ "int" ],
					"patching_rect" : [ 45.0, 26.0, 29.5, 22.0 ],
					"text" : "-"
				}

			}
, 			{
				"box" : 				{
					"clipheight" : 36.600000000000001,
					"data" : 					{
						"clips" : [ 							{
								"absolutepath" : "Kick 01.wav",
								"filename" : "Kick 01.wav",
								"filekind" : "audiofile",
								"loop" : 1,
								"content_state" : 								{
									"quality" : [ "basic" ],
									"timestretch" : [ 0 ],
									"formantcorrection" : [ 0 ],
									"formant" : [ 1.0 ],
									"speed" : [ 1.0 ],
									"mode" : [ "basic" ],
									"originallength" : [ 0.0, "ticks" ],
									"play" : [ 0 ],
									"originaltempo" : [ 120.0 ],
									"originallengthms" : [ 0.0 ],
									"basictuning" : [ 440 ],
									"pitchshift" : [ 1.0 ],
									"pitchcorrection" : [ 0 ],
									"slurtime" : [ 0.0 ],
									"followglobaltempo" : [ 0 ]
								}

							}
, 							{
								"absolutepath" : "cym.aiff",
								"filename" : "cym.aiff",
								"filekind" : "audiofile",
								"loop" : 0,
								"content_state" : 								{
									"quality" : [ "basic" ],
									"timestretch" : [ 0 ],
									"formantcorrection" : [ 0 ],
									"formant" : [ 1.0 ],
									"speed" : [ 1.0 ],
									"mode" : [ "basic" ],
									"originallength" : [ 0.0, "ticks" ],
									"play" : [ 0 ],
									"originaltempo" : [ 120.0 ],
									"originallengthms" : [ 0.0 ],
									"basictuning" : [ 440 ],
									"pitchshift" : [ 1.0 ],
									"pitchcorrection" : [ 0 ],
									"slurtime" : [ 0.0 ],
									"followglobaltempo" : [ 0 ]
								}

							}
, 							{
								"absolutepath" : "Clap 01.wav",
								"filename" : "Clap 01.wav",
								"filekind" : "audiofile",
								"loop" : 0,
								"content_state" : 								{
									"quality" : [ "basic" ],
									"timestretch" : [ 0 ],
									"formantcorrection" : [ 0 ],
									"formant" : [ 1.0 ],
									"speed" : [ 1.0 ],
									"mode" : [ "basic" ],
									"originallength" : [ 0.0, "ticks" ],
									"play" : [ 0 ],
									"originaltempo" : [ 120.0 ],
									"originallengthms" : [ 0.0 ],
									"basictuning" : [ 440 ],
									"pitchshift" : [ 1.0 ],
									"pitchcorrection" : [ 0 ],
									"slurtime" : [ 0.0 ],
									"followglobaltempo" : [ 0 ]
								}

							}
, 							{
								"absolutepath" : "anton.aif",
								"filename" : "anton.aif",
								"filekind" : "audiofile",
								"loop" : 0,
								"content_state" : 								{
									"quality" : [ "basic" ],
									"timestretch" : [ 0 ],
									"formantcorrection" : [ 0 ],
									"formant" : [ 1.0 ],
									"speed" : [ 1.0 ],
									"mode" : [ "basic" ],
									"originallength" : [ 0.0, "ticks" ],
									"play" : [ 0 ],
									"originaltempo" : [ 120.0 ],
									"originallengthms" : [ 0.0 ],
									"basictuning" : [ 440 ],
									"pitchshift" : [ 1.0 ],
									"pitchcorrection" : [ 0 ],
									"slurtime" : [ 0.0 ],
									"followglobaltempo" : [ 0 ]
								}

							}
, 							{
								"absolutepath" : "vibes-a1.aif",
								"filename" : "vibes-a1.aif",
								"filekind" : "audiofile",
								"loop" : 0,
								"content_state" : 								{
									"quality" : [ "basic" ],
									"timestretch" : [ 0 ],
									"formantcorrection" : [ 0 ],
									"formant" : [ 1.0 ],
									"speed" : [ 1.0 ],
									"mode" : [ "basic" ],
									"originallength" : [ 0.0, "ticks" ],
									"play" : [ 0 ],
									"originaltempo" : [ 120.0 ],
									"originallengthms" : [ 0.0 ],
									"basictuning" : [ 440 ],
									"pitchshift" : [ 1.0 ],
									"pitchcorrection" : [ 0 ],
									"slurtime" : [ 0.0 ],
									"followglobaltempo" : [ 0 ]
								}

							}
 ]
					}
,
					"id" : "obj-13",
					"maxclass" : "playlist~",
					"numinlets" : 1,
					"numoutlets" : 5,
					"outlettype" : [ "signal", "signal", "signal", "", "dictionary" ],
					"patching_rect" : [ 49.0, 162.0, 168.0, 188.0 ]
				}

			}
, 			{
				"box" : 				{
					"id" : "obj-10",
					"maxclass" : "number",
					"numinlets" : 1,
					"numoutlets" : 2,
					"outlettype" : [ "", "bang" ],
					"parameter_enable" : 0,
					"patching_rect" : [ 49.0, 127.0, 50.0, 22.0 ]
				}

			}
, 			{
				"box" : 				{
					"id" : "obj-8",
					"maxclass" : "newobj",
					"numinlets" : 3,
					"numoutlets" : 2,
					"outlettype" : [ "int", "int" ],
					"patching_rect" : [ 49.0, 94.0, 50.0, 22.0 ],
					"text" : "split 0 9"
				}

			}
, 			{
				"box" : 				{
					"id" : "obj-7",
					"maxclass" : "number",
					"numinlets" : 1,
					"numoutlets" : 2,
					"outlettype" : [ "", "bang" ],
					"parameter_enable" : 0,
					"patching_rect" : [ 45.0, 56.0, 50.0, 22.0 ]
				}

			}
, 			{
				"box" : 				{
					"id" : "obj-4",
					"maxclass" : "number",
					"numinlets" : 1,
					"numoutlets" : 2,
					"outlettype" : [ "", "bang" ],
					"parameter_enable" : 0,
					"patching_rect" : [ 45.0, -4.0, 50.0, 22.0 ]
				}

			}
, 			{
				"box" : 				{
					"id" : "obj-1",
					"maxclass" : "newobj",
					"numinlets" : 0,
					"numoutlets" : 4,
					"outlettype" : [ "int", "int", "int", "int" ],
					"patching_rect" : [ 45.0, -40.0, 50.5, 22.0 ],
					"text" : "key"
				}

			}
 ],
		"lines" : [ 			{
				"patchline" : 				{
					"destination" : [ "obj-4", 0 ],
					"source" : [ "obj-1", 0 ]
				}

			}
, 			{
				"patchline" : 				{
					"destination" : [ "obj-13", 0 ],
					"source" : [ "obj-10", 0 ]
				}

			}
, 			{
				"patchline" : 				{
					"destination" : [ "obj-24", 0 ],
					"order" : 3,
					"source" : [ "obj-13", 0 ]
				}

			}
, 			{
				"patchline" : 				{
					"destination" : [ "obj-25", 0 ],
					"order" : 1,
					"source" : [ "obj-13", 0 ]
				}

			}
, 			{
				"patchline" : 				{
					"destination" : [ "obj-26", 0 ],
					"order" : 0,
					"source" : [ "obj-13", 0 ]
				}

			}
, 			{
				"patchline" : 				{
					"destination" : [ "obj-30", 0 ],
					"order" : 2,
					"source" : [ "obj-13", 0 ]
				}

			}
, 			{
				"patchline" : 				{
					"destination" : [ "obj-7", 0 ],
					"source" : [ "obj-19", 0 ]
				}

			}
, 			{
				"patchline" : 				{
					"destination" : [ "obj-20", 1 ],
					"order" : 0,
					"source" : [ "obj-24", 0 ]
				}

			}
, 			{
				"patchline" : 				{
					"destination" : [ "obj-20", 0 ],
					"order" : 1,
					"source" : [ "obj-24", 0 ]
				}

			}
, 			{
				"patchline" : 				{
					"destination" : [ "obj-22", 0 ],
					"source" : [ "obj-24", 1 ]
				}

			}
, 			{
				"patchline" : 				{
					"destination" : [ "obj-42", 0 ],
					"order" : 0,
					"source" : [ "obj-31", 0 ]
				}

			}
, 			{
				"patchline" : 				{
					"destination" : [ "obj-43", 0 ],
					"order" : 1,
					"source" : [ "obj-31", 0 ]
				}

			}
, 			{
				"patchline" : 				{
					"destination" : [ "obj-31", 0 ],
					"source" : [ "obj-34", 0 ]
				}

			}
, 			{
				"patchline" : 				{
					"destination" : [ "obj-31", 0 ],
					"source" : [ "obj-36", 0 ]
				}

			}
, 			{
				"patchline" : 				{
					"destination" : [ "obj-31", 0 ],
					"source" : [ "obj-38", 0 ]
				}

			}
, 			{
				"patchline" : 				{
					"destination" : [ "obj-19", 0 ],
					"source" : [ "obj-4", 0 ]
				}

			}
, 			{
				"patchline" : 				{
					"destination" : [ "obj-31", 0 ],
					"source" : [ "obj-41", 0 ]
				}

			}
, 			{
				"patchline" : 				{
					"destination" : [ "obj-44", 0 ],
					"order" : 1,
					"source" : [ "obj-42", 0 ]
				}

			}
, 			{
				"patchline" : 				{
					"destination" : [ "obj-45", 1 ],
					"order" : 0,
					"source" : [ "obj-42", 0 ]
				}

			}
, 			{
				"patchline" : 				{
					"destination" : [ "obj-45", 0 ],
					"order" : 2,
					"source" : [ "obj-42", 0 ]
				}

			}
, 			{
				"patchline" : 				{
					"destination" : [ "obj-8", 0 ],
					"source" : [ "obj-7", 0 ]
				}

			}
, 			{
				"patchline" : 				{
					"destination" : [ "obj-10", 0 ],
					"source" : [ "obj-8", 0 ]
				}

			}
 ],
		"dependency_cache" : [ 			{
				"name" : "Kick 01.wav",
				"bootpath" : "C74:/packages/MaxIntroLessons/media",
				"type" : "WAVE",
				"implicit" : 1
			}
, 			{
				"name" : "cym.aiff",
				"bootpath" : "C74:/docs/tutorial-patchers/msp-tut",
				"type" : "AIFF",
				"implicit" : 1
			}
, 			{
				"name" : "Clap 01.wav",
				"bootpath" : "C74:/packages/MaxIntroLessons/media",
				"type" : "WAVE",
				"implicit" : 1
			}
, 			{
				"name" : "anton.aif",
				"bootpath" : "C74:/media/msp",
				"type" : "AIFF",
				"implicit" : 1
			}
, 			{
				"name" : "vibes-a1.aif",
				"bootpath" : "C74:/media/msp",
				"type" : "AIFF",
				"implicit" : 1
			}
, 			{
				"name" : "cello-f2.aif",
				"bootpath" : "C74:/media/msp",
				"type" : "AIFF",
				"implicit" : 1
			}
 ],
		"autosave" : 0
	}

}
